<svg width="40" height="40" viewBox="0 0 40 40" fill="none" xmlns="http://www.w3.org/2000/svg">
<rect width="40" height="40" rx="20" fill="#00D061"/>
<path d="M29.2939 14.559L27.4654 12.7086C27.3334 12.575 27.1544 12.5 26.9677 12.5C26.7811 12.5 26.6021 12.575 26.4701 12.7086L17.3853 21.9023C17.3629 21.9251 17.3362 21.9431 17.3068 21.9555C17.2774 21.9678 17.2459 21.9741 17.2141 21.9741C17.1823 21.9741 17.1508 21.9678 17.1215 21.9555C17.0921 21.9431 17.0654 21.9251 17.0429 21.9023L13.5299 18.3472C13.3979 18.2136 13.2189 18.1386 13.0323 18.1386C12.8456 18.1386 12.6666 18.2136 12.5346 18.3472L10.7061 20.1976C10.5741 20.3312 10.5 20.5123 10.5 20.7012C10.5 20.8901 10.5741 21.0713 10.7061 21.2049L14.8818 25.4307C15.2997 25.8535 16.1578 26.7265 16.7089 27.2866C16.775 27.3542 16.8537 27.4079 16.9404 27.4445C17.0271 27.4811 17.1202 27.5 17.2141 27.5C17.3081 27.5 17.4012 27.4811 17.4879 27.4445C17.5746 27.4079 17.6533 27.3542 17.7194 27.2866C18.2699 26.7265 19.1286 25.8535 19.5464 25.4307L29.2939 15.5663C29.4259 15.4327 29.5 15.2515 29.5 15.0627C29.5 14.8738 29.4259 14.6926 29.2939 14.559Z" fill="white"/>
</svg>
