<svg width="40" height="41" viewBox="0 0 40 41" fill="none" xmlns="http://www.w3.org/2000/svg">
<rect y="0.5" width="40" height="40" rx="20" fill="#00B3FC"/>
<path d="M29.2939 15.059L27.4654 13.2086C27.3334 13.075 27.1544 13 26.9677 13C26.7811 13 26.6021 13.075 26.4701 13.2086L17.3853 22.4023C17.3629 22.4251 17.3362 22.4431 17.3068 22.4555C17.2774 22.4678 17.2459 22.4741 17.2141 22.4741C17.1823 22.4741 17.1508 22.4678 17.1215 22.4555C17.0921 22.4431 17.0654 22.4251 17.0429 22.4023L13.5299 18.8472C13.3979 18.7136 13.2189 18.6386 13.0323 18.6386C12.8456 18.6386 12.6666 18.7136 12.5346 18.8472L10.7061 20.6976C10.5741 20.8312 10.5 21.0123 10.5 21.2012C10.5 21.3901 10.5741 21.5713 10.7061 21.7049L14.8818 25.9307C15.2997 26.3535 16.1578 27.2265 16.7089 27.7866C16.775 27.8542 16.8537 27.9079 16.9404 27.9445C17.0271 27.9811 17.1202 28 17.2141 28C17.3081 28 17.4012 27.9811 17.4879 27.9445C17.5746 27.9079 17.6533 27.8542 17.7194 27.7866C18.2699 27.2265 19.1286 26.3535 19.5464 25.9307L29.2939 16.0663C29.4259 15.9327 29.5 15.7515 29.5 15.5627C29.5 15.3738 29.4259 15.1926 29.2939 15.059Z" fill="white"/>
</svg>
