<svg width="12" height="10" viewBox="0 0 12 10" fill="none" xmlns="http://www.w3.org/2000/svg">
<path fill-rule="evenodd" clip-rule="evenodd" d="M0.231834 2.68703L4.13449 8.86141C4.34983 9.16721 4.59207 9.44044 4.88815 9.64865C5.20442 9.86984 5.56778 10 5.99839 10C6.429 10 6.79236 9.86991 7.11533 9.64865C7.40469 9.44044 7.64693 9.16721 7.8622 8.86141L11.785 2.65453C12.081 2.06247 12.081 1.38585 11.7245 0.819736C11.4082 0.31876 10.8498 -2.76047e-06 10.2441 -2.70752e-06L1.7592 -1.96574e-06C1.14687 -1.91221e-06 0.595154 0.318779 0.278885 0.819737C-0.0777185 1.37923 -0.0911424 2.10795 0.231834 2.68703Z" fill="#00A0F3"/>
</svg>
