<svg width="40" height="40" viewBox="0 0 40 40" fill="none" xmlns="http://www.w3.org/2000/svg">
<rect width="40" height="40" rx="20" fill="#FFD02A"/>
<path d="M29.4191 20.819C28.7134 20.1369 27.6747 20.0755 26.969 20.7576L24.9521 22.707C24.427 23.214 23.7944 23.2152 23.425 22.7937C23.1803 22.5145 23.2769 21.6533 23.3455 21.107L24.357 13.0665C24.4474 12.3482 23.9181 11.6542 23.1751 11.5669C22.432 11.4796 21.7564 12.032 21.6661 12.7502L20.5501 19.0655C20.4919 19.2225 20.3668 19.2498 20.3526 19.0382L19.9728 10.8296C19.9728 10.1061 19.3659 9.51953 18.6174 9.51953C17.8688 9.51953 17.262 10.1061 17.262 10.8296L17.2352 19.0994C17.2423 19.1948 17.1576 19.2222 17.1422 19.1131L15.9364 12.6579C15.8034 11.9459 15.0984 11.4319 14.3617 11.5606C13.6249 11.6891 13.1357 12.4115 13.2688 13.1235L14.3425 20.6776C14.3436 20.8119 14.2971 20.8888 14.2309 20.7165L12.6289 16.575C12.3783 15.8932 11.6033 15.4958 10.898 15.738C10.1927 15.9803 9.8239 16.7702 10.0745 17.4519L12.8827 26.324C12.8974 26.373 12.913 26.4216 12.9289 26.4699L12.9347 26.4881C12.9353 26.4896 12.9359 26.4908 12.9365 26.4923C13.7139 28.8069 15.9633 30.4804 18.6177 30.4804C20.3166 30.4804 22.0814 29.9013 23.4248 28.905L23.4249 28.9049C24.8759 28.0603 29.5246 23.2274 29.5246 23.2274C30.2303 22.5455 30.1247 21.5009 29.419 20.8188L29.4191 20.819Z" fill="white"/>
</svg>
