<svg width="263" height="73" viewBox="0 0 263 73" fill="none" xmlns="http://www.w3.org/2000/svg">
<path d="M222.793 41.3615C222.793 41.6378 222.735 41.901 222.62 42.151C222.505 42.4009 222.353 42.6213 222.164 42.8121C221.975 43.0029 221.748 43.1542 221.485 43.266C221.221 43.3779 220.94 43.4338 220.643 43.4338C220.346 43.4338 220.068 43.3779 219.811 43.266C219.555 43.1542 219.328 43.0062 219.132 42.822C218.936 42.6378 218.78 42.4174 218.666 42.1608C218.551 41.9043 218.493 41.6378 218.493 41.3615C218.493 41.0852 218.551 40.8188 218.666 40.5622C218.78 40.3056 218.936 40.0853 219.132 39.9011C219.328 39.7169 219.555 39.5688 219.811 39.457C220.068 39.3452 220.346 39.2892 220.643 39.2892C220.94 39.2892 221.218 39.3452 221.474 39.457C221.731 39.5688 221.958 39.7169 222.154 39.9011C222.35 40.0853 222.505 40.3056 222.62 40.5622C222.735 40.8188 222.793 41.0852 222.793 41.3615ZM235.448 33.2895V43.1575H231.797V42.0917C231.013 42.9733 229.979 43.4141 228.694 43.4141C228.045 43.4141 227.437 43.2825 226.869 43.0193C226.301 42.7562 225.811 42.3911 225.399 41.924C224.986 41.4569 224.662 40.9076 224.425 40.276C224.189 39.6445 224.07 38.9603 224.07 38.2235C224.07 37.4999 224.189 36.819 224.425 36.1808C224.662 35.5427 224.986 34.9934 225.399 34.5329C225.811 34.0724 226.301 33.7073 226.869 33.4375C227.437 33.1678 228.045 33.033 228.694 33.033C229.343 33.033 229.928 33.1415 230.449 33.3586C230.969 33.5757 231.419 33.9079 231.797 34.3553V33.2895H235.448ZM227.762 38.2235C227.762 38.4998 227.816 38.7564 227.924 38.9932C228.032 39.23 228.181 39.4373 228.37 39.6149C228.559 39.7925 228.779 39.934 229.029 40.0392C229.279 40.1445 229.546 40.1971 229.83 40.1971C230.114 40.1971 230.381 40.1445 230.631 40.0392C230.881 39.934 231.101 39.7925 231.29 39.6149C231.48 39.4373 231.628 39.23 231.737 38.9932C231.845 38.7564 231.899 38.4998 231.899 38.2235C231.899 37.9472 231.845 37.6906 231.737 37.4538C231.628 37.217 231.48 37.0097 231.29 36.8321C231.101 36.6545 230.881 36.5131 230.631 36.4078C230.381 36.3025 230.114 36.2499 229.83 36.2499C229.546 36.2499 229.279 36.3025 229.029 36.4078C228.779 36.5131 228.559 36.6545 228.37 36.8321C228.181 37.0097 228.032 37.217 227.924 37.4538C227.816 37.6906 227.762 37.9472 227.762 38.2235ZM241.37 33.2895V34.4145C241.735 33.9671 242.178 33.625 242.698 33.3882C243.219 33.1514 243.797 33.033 244.432 33.033C245.095 33.033 245.71 33.1645 246.278 33.4277C246.846 33.6908 247.339 34.0559 247.758 34.523C248.178 34.9901 248.505 35.5394 248.742 36.171C248.979 36.8025 249.097 37.4867 249.097 38.2235C249.097 38.9603 248.979 39.6445 248.742 40.276C248.505 40.9076 248.178 41.4536 247.758 41.9141C247.339 42.3746 246.846 42.7397 246.278 43.0095C245.71 43.2792 245.095 43.4141 244.432 43.4141C243.797 43.4141 243.216 43.3055 242.688 43.0884C242.161 42.8713 241.722 42.5391 241.37 42.0917V47.2626H237.679V33.2895H241.37ZM245.386 38.2235C245.386 37.9472 245.331 37.6906 245.223 37.4538C245.115 37.217 244.966 37.0097 244.777 36.8321C244.588 36.6545 244.372 36.5131 244.128 36.4078C243.885 36.3025 243.621 36.2499 243.337 36.2499C243.053 36.2499 242.786 36.3025 242.536 36.4078C242.286 36.5131 242.066 36.6545 241.877 36.8321C241.688 37.0097 241.539 37.217 241.431 37.4538C241.323 37.6906 241.269 37.9472 241.269 38.2235C241.269 38.4998 241.323 38.7564 241.431 38.9932C241.539 39.23 241.688 39.4373 241.877 39.6149C242.066 39.7925 242.286 39.934 242.536 40.0392C242.786 40.1445 243.053 40.1971 243.337 40.1971C243.621 40.1971 243.885 40.1445 244.128 40.0392C244.372 39.934 244.588 39.7925 244.777 39.6149C244.967 39.4373 245.115 39.23 245.223 38.9932C245.331 38.7564 245.386 38.4998 245.386 38.2235ZM254.471 33.2895V34.4145C254.836 33.9671 255.279 33.625 255.8 33.3882C256.32 33.1514 256.898 33.033 257.534 33.033C258.196 33.033 258.811 33.1645 259.379 33.4277C259.947 33.6908 260.441 34.0559 260.86 34.523C261.279 34.9901 261.607 35.5394 261.843 36.171C262.08 36.8025 262.198 37.4867 262.198 38.2235C262.198 38.9603 262.08 39.6445 261.843 40.276C261.607 40.9076 261.279 41.4536 260.86 41.9141C260.441 42.3746 259.947 42.7397 259.379 43.0095C258.811 43.2792 258.196 43.4141 257.534 43.4141C256.898 43.4141 256.317 43.3055 255.79 43.0884C255.262 42.8713 254.823 42.5391 254.471 42.0917V47.2626H250.78V33.2895H254.471ZM258.487 38.2235C258.487 37.9472 258.433 37.6906 258.325 37.4538C258.217 37.217 258.068 37.0097 257.879 36.8321C257.689 36.6545 257.473 36.5131 257.23 36.4078C256.986 36.3025 256.723 36.2499 256.439 36.2499C256.155 36.2499 255.888 36.3025 255.638 36.4078C255.387 36.5131 255.168 36.6545 254.978 36.8321C254.789 37.0097 254.64 37.217 254.532 37.4538C254.424 37.6906 254.37 37.9472 254.37 38.2235C254.37 38.4998 254.424 38.7564 254.532 38.9932C254.64 39.23 254.789 39.4373 254.978 39.6149C255.168 39.7925 255.387 39.934 255.638 40.0392C255.888 40.1445 256.155 40.1971 256.439 40.1971C256.723 40.1971 256.986 40.1445 257.23 40.0392C257.473 39.934 257.689 39.7925 257.879 39.6149C258.068 39.4373 258.217 39.23 258.325 38.9932C258.433 38.7564 258.487 38.4998 258.487 38.2235Z" fill="black"/>
<path d="M112.102 16.069L101.309 28.7585L112.717 44.0194H100.638L92.4734 32.6156V44.0194H82.2956V4.88885H92.4734V25.4044L100.191 16.069H112.102ZM113.815 44.0194V16.069H124.049V44.0194H113.815ZM124.664 8.187C124.664 8.93261 124.515 9.65 124.217 10.3392C123.919 11.0287 123.508 11.6343 122.987 12.156C122.465 12.6779 121.859 13.0879 121.169 13.3858C120.479 13.6839 119.724 13.833 118.904 13.833C118.121 13.833 117.385 13.6839 116.695 13.3858C116.006 13.0876 115.4 12.6777 114.878 12.156C114.356 11.6342 113.946 11.0379 113.648 10.3671C113.349 9.69632 113.2 8.96961 113.2 8.187C113.2 7.40439 113.349 6.67767 113.648 6.00687C113.946 5.33606 114.356 4.73978 114.878 4.21804C115.4 3.6963 116.006 3.28636 116.695 2.98822C117.385 2.69009 118.121 2.54102 118.904 2.54102C119.724 2.54102 120.479 2.69009 121.169 2.98822C121.859 3.28667 122.465 3.69661 122.987 4.21804C123.508 4.73993 123.919 5.34552 124.217 6.03482C124.515 6.72454 124.664 7.44193 124.664 8.187ZM137.44 44.0194H127.206V16.069H137.44V19.479C138.223 18.1001 139.285 17.0566 140.627 16.3485C141.97 15.6404 143.498 15.2864 145.213 15.2864C148.233 15.2864 150.61 16.2647 152.343 18.2212C154.077 20.1777 154.944 22.8516 154.944 26.243V44.0194H144.71V29.038C144.71 27.6218 144.393 26.5318 143.759 25.7678C143.125 25.0038 142.249 24.6218 141.131 24.6218C140.012 24.6218 139.118 25.0131 138.446 25.7957C137.775 26.5784 137.44 27.6964 137.44 29.1498V44.0194ZM188.812 4.88885V44.0194H178.634V41.0008C177.628 42.2306 176.407 43.1623 174.971 43.7958C173.536 44.4293 171.942 44.7461 170.19 44.7461C168.363 44.7461 166.667 44.3734 165.101 43.6281C163.535 42.8828 162.174 41.8486 161.019 40.5256C159.863 39.2026 158.959 37.6467 158.306 35.8579C157.654 34.0691 157.328 32.1312 157.328 30.0442C157.328 27.9945 157.654 26.0659 158.306 24.2585C158.959 22.451 159.863 20.8951 161.019 19.5908C162.174 18.2864 163.535 17.2522 165.101 16.4883C166.667 15.7243 168.363 15.3423 170.19 15.3423C171.942 15.3423 173.545 15.6498 174.999 16.2647C176.453 16.8796 177.665 17.8206 178.634 19.0877V4.88885H188.812ZM167.562 30.0442C167.562 30.8268 167.711 31.5535 168.009 32.2243C168.307 32.8951 168.717 33.4821 169.239 33.9852C169.761 34.4883 170.358 34.8889 171.029 35.1871C171.7 35.4852 172.427 35.6343 173.21 35.6343C173.993 35.6343 174.729 35.4852 175.419 35.1871C176.108 34.8889 176.714 34.4883 177.236 33.9852C177.758 33.4821 178.168 32.8951 178.466 32.2243C178.765 31.5535 178.914 30.8268 178.914 30.0442C178.914 29.2616 178.765 28.5349 178.466 27.8641C178.168 27.1933 177.758 26.6063 177.236 26.1032C176.714 25.6001 176.108 25.1995 175.419 24.9013C174.729 24.6032 173.993 24.4541 173.21 24.4541C172.427 24.4541 171.7 24.6032 171.029 24.9013C170.358 25.1995 169.761 25.6001 169.239 26.1032C168.717 26.6063 168.307 27.1933 168.009 27.8641C167.711 28.5349 167.562 29.2616 167.562 30.0442ZM194.072 60.4758C194.072 60.4758 196.562 55.1021 201.542 44.3548L190.078 16.069H200.871L206.966 33.1747L213.062 16.069H223.575L211.664 45.361C210.023 49.3486 204.255 60.4758 204.255 60.4758H194.072Z" fill="black"/>
<path d="M86.8287 72.6287V66.8589H91.3212V63.1152H86.8287V60.957H91.8057V57.2133H82.6886V72.6287H86.8287Z" fill="black"/>
<path d="M104.422 72.6287V61.6177H100.392V67.4755C100.392 68.0481 100.26 68.4885 99.9953 68.7968C99.731 69.1051 99.3787 69.2593 98.9603 69.2593C98.5198 69.2593 98.1675 69.1272 97.9252 68.8188C97.683 68.5105 97.5729 68.0921 97.5729 67.5196V61.6177H93.5429V68.6207C93.5429 69.964 93.8732 71.021 94.5559 71.7918C95.2165 72.5626 96.1635 72.937 97.3527 72.937C98.0133 72.937 98.6079 72.8048 99.1365 72.5185C99.665 72.2543 100.083 71.8359 100.392 71.2853V72.6287H104.422ZM98.4538 58.4245C98.4538 57.94 98.2776 57.5216 97.9252 57.1692C97.5729 56.8169 97.1325 56.6187 96.6259 56.6187C96.1194 56.6187 95.701 56.7948 95.3487 57.1472C94.9963 57.4995 94.8201 57.94 94.8201 58.4245C94.8201 58.931 94.9963 59.3494 95.3487 59.7017C95.701 60.0541 96.1194 60.2303 96.6259 60.2303C97.1325 60.2303 97.5729 60.0541 97.9252 59.7017C98.2776 59.3494 98.4538 58.9089 98.4538 58.4245ZM103.166 58.4245C103.166 57.94 102.99 57.5216 102.638 57.1692C102.286 56.8169 101.845 56.6187 101.339 56.6187C100.832 56.6187 100.414 56.7948 100.061 57.1472C99.709 57.4995 99.5328 57.94 99.5328 58.4245C99.5328 58.931 99.709 59.3494 100.061 59.7017C100.414 60.0541 100.832 60.2303 101.339 60.2303C101.845 60.2303 102.286 60.0541 102.638 59.7017C102.99 59.3494 103.166 58.9089 103.166 58.4245Z" fill="black"/>
<path d="M114.433 65.5816V61.4415C114.278 61.3974 114.08 61.3534 113.838 61.3534C113.133 61.3534 112.517 61.5296 112.01 61.8819C111.504 62.2343 111.107 62.7188 110.821 63.3574V61.6177H106.835V72.6287H110.843V68.6207C110.843 67.6076 111.063 66.8148 111.526 66.2643C111.966 65.7137 112.627 65.4275 113.464 65.4275C113.618 65.4275 113.772 65.4495 113.948 65.4715C114.124 65.4935 114.278 65.5376 114.433 65.5816Z" fill="black"/>
<path d="M125.346 63.1152V57.2133H121.184V72.6287H125.346V66.3744L129.861 72.6287H135.058L128.848 64.5466L134.662 57.2133H129.773L125.346 63.1152Z" fill="black"/>
<path d="M136.342 72.6287H140.372V61.6177H136.342V72.6287ZM140.614 58.5126C140.614 58.2263 140.548 57.94 140.438 57.6757C140.306 57.4115 140.151 57.1692 139.953 56.949C139.733 56.7508 139.491 56.5966 139.226 56.4645C138.962 56.3544 138.654 56.2883 138.346 56.2883C138.037 56.2883 137.729 56.3544 137.465 56.4645C137.2 56.5966 136.958 56.7508 136.76 56.949C136.54 57.1692 136.386 57.3894 136.276 57.6537C136.143 57.918 136.099 58.2042 136.099 58.5126C136.099 58.8209 136.143 59.1071 136.276 59.3714C136.386 59.6357 136.54 59.8779 136.76 60.0761C136.958 60.2963 137.2 60.4505 137.465 60.5606C137.729 60.6927 138.037 60.7368 138.346 60.7368C138.654 60.7368 138.962 60.6927 139.226 60.5606C139.491 60.4505 139.733 60.2963 139.953 60.0761C140.151 59.8779 140.306 59.6357 140.438 59.3714C140.548 59.1071 140.614 58.8209 140.614 58.5126Z" fill="black"/>
<path d="M147.329 58.4685H143.321V61.6177H141.845V64.8549H143.321V68.7748C143.321 70.0961 143.673 71.1312 144.378 71.8359C145.083 72.5626 146.074 72.9149 147.307 72.9149C147.923 72.9149 148.43 72.8709 148.87 72.7608C149.289 72.6727 149.641 72.5406 149.905 72.4084V69.017C149.729 69.1272 149.531 69.2152 149.333 69.2593C149.113 69.3254 148.914 69.3474 148.716 69.3474C148.254 69.3474 147.901 69.2373 147.681 69.017C147.439 68.7968 147.329 68.4004 147.329 67.8279V64.8549H149.905V61.6177H147.329V58.4685Z" fill="black"/>
<path d="M163.219 61.6177H159.255V62.8068C158.837 62.3224 158.353 61.948 157.78 61.7057C157.207 61.4635 156.591 61.3314 155.886 61.3314C155.181 61.3314 154.521 61.4855 153.904 61.7938C153.288 62.1021 152.737 62.4985 152.297 63.005C151.856 63.5336 151.504 64.1502 151.239 64.8549C150.975 65.5596 150.865 66.3304 150.865 67.1232C150.865 67.96 150.975 68.7087 151.239 69.4134C151.504 70.1181 151.856 70.7348 152.297 71.2633C152.737 71.7918 153.288 72.1882 153.904 72.4745C154.521 72.7828 155.181 72.9149 155.886 72.9149C157.273 72.9149 158.397 72.4305 159.255 71.4395V72.6287H163.219V61.6177ZM154.873 67.1232C154.873 66.8148 154.917 66.5286 155.049 66.2643C155.159 66 155.314 65.7798 155.534 65.5816C155.732 65.3834 155.974 65.2293 156.238 65.0971C156.503 64.987 156.811 64.921 157.119 64.921C157.428 64.921 157.714 64.987 157.978 65.0971C158.242 65.2293 158.485 65.3834 158.705 65.5816C158.903 65.7798 159.057 66 159.189 66.2643C159.3 66.5286 159.366 66.8148 159.366 67.1232C159.366 67.4315 159.3 67.7177 159.189 67.982C159.057 68.2463 158.903 68.4885 158.705 68.6867C158.485 68.8849 158.242 69.0391 157.978 69.1492C157.714 69.2813 157.428 69.3254 157.119 69.3254C156.811 69.3254 156.503 69.2813 156.238 69.1492C155.974 69.0391 155.732 68.8849 155.534 68.6867C155.314 68.4885 155.159 68.2463 155.049 67.982C154.917 67.7177 154.873 67.4315 154.873 67.1232Z" fill="black"/>
<path d="M174.705 69.1051C174.705 68.2463 174.397 67.5416 173.824 66.991C173.252 66.4405 172.305 66 171.027 65.6477L170.433 65.4935C169.97 65.3834 169.64 65.2953 169.464 65.2072C169.288 65.1412 169.2 65.0311 169.2 64.8989C169.2 64.7448 169.244 64.6347 169.376 64.5686C169.508 64.5025 169.706 64.4585 170.014 64.4585C170.455 64.4585 170.939 64.5466 171.512 64.7228C172.062 64.8989 172.635 65.1412 173.208 65.4495L174.595 62.6307C173.802 62.2122 173.053 61.8819 172.305 61.6617C171.556 61.4415 170.763 61.3314 169.97 61.3314C169.244 61.3314 168.583 61.4195 168.01 61.5956C167.438 61.7718 166.931 62.0361 166.535 62.3664C166.117 62.6967 165.786 63.0931 165.566 63.5336C165.346 63.996 165.236 64.5025 165.236 65.0751C165.236 66.0221 165.522 66.7708 166.117 67.2993C166.711 67.8499 167.658 68.2683 168.979 68.5546L169.552 68.6867C169.97 68.7968 170.279 68.8849 170.455 68.951C170.631 69.0391 170.719 69.1492 170.719 69.3033C170.719 69.6116 170.411 69.7658 169.794 69.7658C169.244 69.7658 168.649 69.6777 168.01 69.4575C167.372 69.2593 166.777 68.995 166.249 68.6427L164.663 71.4395C165.324 71.924 166.095 72.2763 166.975 72.5406C167.856 72.8048 168.803 72.937 169.772 72.937C170.521 72.937 171.182 72.8489 171.798 72.6727C172.415 72.4965 172.921 72.2543 173.362 71.924C173.78 71.5936 174.111 71.1972 174.353 70.7127C174.573 70.2503 174.705 69.7218 174.705 69.1051Z" fill="black"/>
<path d="M62.984 7.11475H9.1148V60.9839H62.984V7.11475Z" fill="url(#paint0_linear_37_265)"/>
<path opacity="0.2" fill-rule="evenodd" clip-rule="evenodd" d="M34.9082 39.6325L41.3553 33.1655L45.3218 37.1544L38.8747 43.6214L34.9082 39.6325Z" fill="#11B1FD"/>
<g filter="url(#filter0_d_37_265)">
<path d="M51.8036 0C60.7851 0 68.066 7.28092 68.066 16.2624V49.8036C68.066 58.7851 60.7851 66.066 51.8036 66.066H18.2624C9.28092 66.066 2 58.7851 2 49.8036V16.2624C2 7.28092 9.28092 0 18.2624 0H51.8036ZM54.9043 12.9495C53.2887 11.3398 50.6742 11.3444 49.0644 12.9599L35.0162 27.0563L21.0472 13.0377C21.0438 13.0342 21.0403 13.0308 21.0369 13.0273C20.0809 12.0748 18.7751 11.6875 17.5342 11.8648C15.4167 12.0477 13.7551 13.8244 13.7551 15.9893V50.0437C13.7551 51.1195 14.1655 52.0996 14.839 52.8353C14.8923 52.8953 14.9477 52.9542 15.0051 53.0118C15.0085 53.0152 15.012 53.0187 15.0154 53.0221C16.6309 54.6319 19.2455 54.6272 20.8553 53.0117L35.0162 38.7993L49.2563 53.0895L49.2667 53.0999C50.8822 54.7097 53.4968 54.705 55.1066 53.0895C56.7238 51.4666 56.7238 48.8414 55.1066 47.2185L40.8672 32.9283L54.9146 18.831C56.5318 17.208 56.5318 14.5828 54.9146 12.9599L54.9043 12.9495ZM22.0341 25.7703L29.1662 32.9283L22.0341 40.0853V25.7703Z" fill="black"/>
</g>
<path d="M51.8036 0C60.7851 0 68.066 7.28092 68.066 16.2624V49.8036C68.066 58.7851 60.7851 66.066 51.8036 66.066H18.2624C9.28092 66.066 2 58.7851 2 49.8036V16.2624C2 7.28092 9.28092 0 18.2624 0H51.8036ZM54.9043 12.9495C53.2887 11.3398 50.6742 11.3444 49.0644 12.9599L35.0162 27.0563L21.0472 13.0377C21.0438 13.0342 21.0403 13.0308 21.0369 13.0273C20.0809 12.0748 18.7751 11.6875 17.5342 11.8648C15.4167 12.0477 13.7551 13.8244 13.7551 15.9893V50.0437C13.7551 51.1195 14.1655 52.0996 14.839 52.8353C14.8923 52.8953 14.9477 52.9542 15.0051 53.0118C15.0085 53.0152 15.012 53.0187 15.0154 53.0221C16.6309 54.6319 19.2455 54.6272 20.8553 53.0117L35.0162 38.7993L49.2563 53.0895L49.2667 53.0999C50.8822 54.7097 53.4968 54.705 55.1066 53.0895C56.7238 51.4666 56.7238 48.8414 55.1066 47.2185L40.8672 32.9283L54.9146 18.831C56.5318 17.208 56.5318 14.5828 54.9146 12.9599L54.9043 12.9495ZM22.0341 25.7703L29.1662 32.9283L22.0341 40.0853V25.7703Z" fill="white"/>
<defs>
<filter id="filter0_d_37_265" x="0" y="0" width="70.066" height="70.066" filterUnits="userSpaceOnUse" color-interpolation-filters="sRGB">
<feFlood flood-opacity="0" result="BackgroundImageFix"/>
<feColorMatrix in="SourceAlpha" type="matrix" values="0 0 0 0 0 0 0 0 0 0 0 0 0 0 0 0 0 0 127 0" result="hardAlpha"/>
<feOffset dy="2"/>
<feGaussianBlur stdDeviation="1"/>
<feColorMatrix type="matrix" values="0 0 0 0 0 0 0 0 0 0 0 0 0 0 0 0 0 0 0.145624 0"/>
<feBlend mode="normal" in2="BackgroundImageFix" result="effect1_dropShadow_37_265"/>
<feBlend mode="normal" in="SourceGraphic" in2="effect1_dropShadow_37_265" result="shape"/>
</filter>
<linearGradient id="paint0_linear_37_265" x1="62.984" y1="7.11475" x2="9.1148" y2="60.9839" gradientUnits="userSpaceOnUse">
<stop stop-color="#00B4FF"/>
<stop offset="0.512584" stop-color="#FE7BE3"/>
<stop offset="1" stop-color="#FFD02A"/>
</linearGradient>
</defs>
</svg>
