<svg width="121" height="39" viewBox="0 0 121 39" fill="none" xmlns="http://www.w3.org/2000/svg">
<g clip-path="url(#clip0_2_692)">
<path d="M101.8 25.0523C101.8 25.1833 101.773 25.308 101.719 25.4265C101.665 25.545 101.594 25.6494 101.505 25.7399C101.416 25.8303 101.31 25.902 101.186 25.955C101.063 26.008 100.931 26.0345 100.792 26.0345C100.653 26.0345 100.523 26.008 100.402 25.955C100.282 25.902 100.176 25.8318 100.084 25.7445C99.992 25.6572 99.9191 25.5528 99.8653 25.4312C99.8114 25.3095 99.7845 25.1833 99.7845 25.0523C99.7845 24.9213 99.8114 24.7951 99.8653 24.6734C99.9191 24.5518 99.992 24.4474 100.084 24.3601C100.176 24.2728 100.282 24.2026 100.402 24.1496C100.523 24.0966 100.653 24.0701 100.792 24.0701C100.931 24.0701 101.061 24.0966 101.182 24.1496C101.302 24.2026 101.408 24.2728 101.5 24.3601C101.592 24.4474 101.665 24.5518 101.719 24.6734C101.773 24.7951 101.8 24.9213 101.8 25.0523ZM107.731 21.2263V25.9036H106.02V25.3984C105.652 25.8162 105.167 26.0252 104.565 26.0252C104.261 26.0252 103.976 25.9628 103.71 25.8381C103.444 25.7133 103.214 25.5403 103.021 25.3189C102.828 25.0975 102.676 24.8371 102.565 24.5378C102.454 24.2385 102.398 23.9142 102.398 23.5649C102.398 23.222 102.454 22.8992 102.565 22.5968C102.676 22.2943 102.828 22.0339 103.021 21.8157C103.214 21.5974 103.444 21.4243 103.71 21.2965C103.976 21.1687 104.261 21.1047 104.565 21.1047C104.87 21.1047 105.144 21.1562 105.388 21.2591C105.632 21.362 105.842 21.5194 106.02 21.7315V21.2263H107.731ZM104.128 23.5649C104.128 23.6959 104.154 23.8175 104.204 23.9298C104.255 24.042 104.325 24.1402 104.413 24.2244C104.502 24.3086 104.605 24.3757 104.722 24.4256C104.839 24.4754 104.965 24.5004 105.098 24.5004C105.231 24.5004 105.356 24.4754 105.473 24.4256C105.59 24.3757 105.693 24.3086 105.782 24.2244C105.871 24.1402 105.94 24.042 105.991 23.9298C106.042 23.8175 106.067 23.6959 106.067 23.5649C106.067 23.434 106.042 23.3124 105.991 23.2001C105.94 23.0879 105.871 22.9897 105.782 22.9055C105.693 22.8213 105.59 22.7542 105.473 22.7043C105.356 22.6545 105.231 22.6295 105.098 22.6295C104.965 22.6295 104.839 22.6545 104.722 22.7043C104.605 22.7542 104.502 22.8213 104.413 22.9055C104.325 22.9897 104.255 23.0879 104.204 23.2001C104.154 23.3124 104.128 23.434 104.128 23.5649ZM110.506 21.2263V21.7595C110.677 21.5475 110.885 21.3854 111.129 21.2731C111.372 21.1609 111.643 21.1047 111.941 21.1047C112.252 21.1047 112.54 21.1671 112.806 21.2918C113.072 21.4166 113.304 21.5896 113.5 21.811C113.696 22.0324 113.85 22.2927 113.961 22.5921C114.072 22.8914 114.127 23.2157 114.127 23.5649C114.127 23.9142 114.072 24.2385 113.961 24.5378C113.85 24.8371 113.696 25.096 113.5 25.3142C113.304 25.5325 113.072 25.7056 112.806 25.8334C112.54 25.9612 112.252 26.0252 111.941 26.0252C111.643 26.0252 111.371 25.9737 111.124 25.8708C110.877 25.7679 110.671 25.6104 110.506 25.3984V27.8493H108.776V21.2263H110.506ZM112.388 23.5649C112.388 23.434 112.363 23.3124 112.312 23.2001C112.261 23.0879 112.191 22.9897 112.103 22.9055C112.014 22.8213 111.913 22.7542 111.799 22.7043C111.685 22.6545 111.561 22.6295 111.428 22.6295C111.295 22.6295 111.17 22.6545 111.052 22.7043C110.935 22.7542 110.832 22.8213 110.744 22.9055C110.655 22.9897 110.585 23.0879 110.534 23.2001C110.484 23.3124 110.458 23.434 110.458 23.5649C110.458 23.6959 110.484 23.8175 110.534 23.9298C110.585 24.042 110.655 24.1402 110.744 24.2244C110.832 24.3086 110.935 24.3757 111.052 24.4256C111.17 24.4754 111.295 24.5004 111.428 24.5004C111.561 24.5004 111.685 24.4754 111.799 24.4256C111.913 24.3757 112.014 24.3086 112.103 24.2244C112.191 24.1402 112.261 24.042 112.312 23.9298C112.363 23.8175 112.388 23.6959 112.388 23.5649ZM116.646 21.2263V21.7595C116.817 21.5475 117.025 21.3854 117.269 21.2731C117.513 21.1609 117.783 21.1047 118.081 21.1047C118.392 21.1047 118.68 21.1671 118.946 21.2918C119.212 21.4166 119.444 21.5896 119.64 21.811C119.837 22.0324 119.99 22.2927 120.101 22.5921C120.212 22.8914 120.267 23.2157 120.267 23.5649C120.267 23.9142 120.212 24.2385 120.101 24.5378C119.99 24.8371 119.837 25.096 119.64 25.3142C119.444 25.5325 119.212 25.7056 118.946 25.8334C118.68 25.9612 118.392 26.0252 118.081 26.0252C117.783 26.0252 117.511 25.9737 117.264 25.8708C117.017 25.7679 116.811 25.6104 116.646 25.3984V27.8493H114.916V21.2263H116.646ZM118.528 23.5649C118.528 23.434 118.503 23.3124 118.452 23.2001C118.401 23.0879 118.332 22.9897 118.243 22.9055C118.154 22.8213 118.053 22.7542 117.939 22.7043C117.825 22.6545 117.701 22.6295 117.568 22.6295C117.435 22.6295 117.31 22.6545 117.193 22.7043C117.075 22.7542 116.972 22.8213 116.884 22.9055C116.795 22.9897 116.725 23.0879 116.675 23.2001C116.624 23.3124 116.599 23.434 116.599 23.5649C116.599 23.6959 116.624 23.8175 116.675 23.9298C116.725 24.042 116.795 24.1402 116.884 24.2244C116.972 24.3086 117.075 24.3757 117.193 24.4256C117.31 24.4754 117.435 24.5004 117.568 24.5004C117.701 24.5004 117.825 24.4754 117.939 24.4256C118.053 24.3757 118.154 24.3086 118.243 24.2244C118.332 24.1402 118.401 24.042 118.452 23.9298C118.503 23.8175 118.528 23.6959 118.528 23.5649Z" fill="white"/>
<path d="M54.3986 13.9646L49.8007 19.3777L54.6606 25.8878H49.5149L46.0367 21.0231V25.8878H41.701V9.19539H46.0367V17.947L49.3243 13.9646H54.3986ZM55.1284 25.8878V13.9646H59.488V25.8878H55.1284ZM59.75 10.6023C59.75 10.9204 59.6865 11.2264 59.5594 11.5204C59.4324 11.8146 59.2577 12.0729 59.0353 12.2954C58.813 12.5181 58.5549 12.6929 58.2611 12.82C57.9673 12.9472 57.6457 13.0108 57.2963 13.0108C56.9628 13.0108 56.6491 12.9472 56.3553 12.82C56.0615 12.6928 55.8034 12.518 55.581 12.2954C55.3587 12.0728 55.184 11.8185 55.0569 11.5323C54.9299 11.2462 54.8664 10.9362 54.8664 10.6023C54.8664 10.2685 54.9299 9.95847 55.0569 9.67231C55.184 9.38616 55.3587 9.1318 55.581 8.90923C55.8034 8.68667 56.0615 8.5118 56.3553 8.38462C56.6491 8.25744 56.9628 8.19385 57.2963 8.19385C57.6457 8.19385 57.9673 8.25744 58.2611 8.38462C58.5549 8.51193 58.813 8.6868 59.0353 8.90923C59.2577 9.13186 59.4324 9.3902 59.5594 9.68424C59.6865 9.97846 59.75 10.2845 59.75 10.6023ZM65.1925 25.8878H60.8329V13.9646H65.1925V15.4193C65.526 14.8311 65.9786 14.3859 66.5504 14.0839C67.1221 13.7818 67.7733 13.6308 68.5038 13.6308C69.7903 13.6308 70.8027 14.0481 71.5412 14.8827C72.2798 15.7173 72.649 16.858 72.649 18.3047V25.8878H68.2894V19.497C68.2894 18.8929 68.1544 18.4279 67.8844 18.102C67.6145 17.7761 67.2412 17.6131 66.7648 17.6131C66.2883 17.6131 65.9071 17.78 65.6213 18.1139C65.3354 18.4477 65.1925 18.9247 65.1925 19.5447V25.8878ZM87.077 9.19539V25.8878H82.7412V24.6001C82.3124 25.1247 81.7923 25.5221 81.1808 25.7924C80.5694 26.0626 79.8904 26.1978 79.144 26.1978C78.3658 26.1978 77.6431 26.0388 76.9761 25.7208C76.3091 25.4029 75.7294 24.9617 75.237 24.3974C74.7447 23.833 74.3596 23.1693 74.0816 22.4062C73.8037 21.6431 73.6647 20.8165 73.6647 19.9262C73.6647 19.0518 73.8037 18.2291 74.0816 17.4581C74.3596 16.6871 74.7447 16.0234 75.237 15.467C75.7294 14.9105 76.3091 14.4694 76.9761 14.1435C77.6431 13.8176 78.3658 13.6546 79.144 13.6546C79.8904 13.6546 80.5733 13.7858 81.1927 14.0481C81.8121 14.3104 82.3283 14.7118 82.7412 15.2523V9.19539H87.077ZM78.0243 19.9262C78.0243 20.26 78.0878 20.57 78.2149 20.8562C78.3419 21.1424 78.5166 21.3927 78.739 21.6074C78.9613 21.822 79.2154 21.9929 79.5013 22.1201C79.7872 22.2472 80.0969 22.3108 80.4304 22.3108C80.7639 22.3108 81.0776 22.2472 81.3714 22.1201C81.6652 21.9929 81.9233 21.822 82.1457 21.6074C82.368 21.3927 82.5427 21.1424 82.6698 20.8562C82.7968 20.57 82.8603 20.26 82.8603 19.9262C82.8603 19.5924 82.7968 19.2823 82.6698 18.9962C82.5427 18.71 82.368 18.4597 82.1457 18.245C81.9233 18.0304 81.6652 17.8595 81.3714 17.7323C81.0776 17.6052 80.7639 17.5416 80.4304 17.5416C80.0969 17.5416 79.7872 17.6052 79.5013 17.7323C79.2154 17.8595 78.9613 18.0304 78.739 18.245C78.5166 18.4597 78.3419 18.71 78.2149 18.9962C78.0878 19.2823 78.0243 19.5924 78.0243 19.9262ZM89.3177 32.9078C89.3177 32.9078 90.3784 30.6154 92.4999 26.0308L87.6162 13.9646H92.2141L94.8107 21.2616L97.4074 13.9646H101.886L96.8119 26.4601C96.1131 28.1611 93.6559 32.9078 93.6559 32.9078H89.3177Z" fill="white"/>
<path d="M34.1244 4.44189H5.48285V33.3065H34.1244V4.44189Z" fill="url(#paint0_linear_2_692)"/>
<path opacity="0.2" fill-rule="evenodd" clip-rule="evenodd" d="M18.9578 21.7051L22.3856 18.2399L24.4945 20.3773L21.0667 23.8425L18.9578 21.7051Z" fill="#11B1FD"/>
<g filter="url(#filter0_d_2_692)">
<path d="M28.1865 0.629639C32.9582 0.629639 36.8265 4.4979 36.8265 9.26964V27.3896C36.8265 32.1614 32.9582 36.0296 28.1865 36.0296H10.34C5.56827 36.0296 1.70001 32.1614 1.70001 27.3896V9.26964C1.70001 4.4979 5.56827 0.629639 10.34 0.629639H28.1865ZM29.8165 7.55643C28.9576 6.70715 27.5728 6.71499 26.7235 7.57393L19.2546 15.1274L11.8272 7.61561C11.8214 7.60974 11.8156 7.60391 11.8097 7.59811C11.3057 7.0998 10.6207 6.89656 9.96864 6.9863C8.8384 7.0791 7.95006 8.0258 7.95006 9.17999V27.4616C7.95006 28.1198 8.23899 28.7105 8.69723 29.1141C9.55968 29.9007 10.897 29.8724 11.7251 29.0348L19.2546 21.419L26.8256 29.0765C26.8314 29.0823 26.8372 29.0882 26.8431 29.094C27.702 29.9433 29.0868 29.9354 29.9361 29.0765L29.9547 29.0576C30.8062 28.1965 30.8062 26.8106 29.9548 25.9495L22.365 18.2732L29.851 10.7027C30.7034 9.8406 30.7034 8.45312 29.8509 7.59102L29.834 7.57392C29.8282 7.56806 29.8224 7.56223 29.8165 7.55643ZM12.3523 14.4386L16.1442 18.2732L12.3523 22.1078V14.4386Z" fill="black"/>
</g>
<path d="M28.1865 0.629639C32.9582 0.629639 36.8265 4.4979 36.8265 9.26964V27.3896C36.8265 32.1614 32.9582 36.0296 28.1865 36.0296H10.34C5.56827 36.0296 1.70001 32.1614 1.70001 27.3896V9.26964C1.70001 4.4979 5.56827 0.629639 10.34 0.629639H28.1865ZM29.8165 7.55643C28.9576 6.70715 27.5728 6.71499 26.7235 7.57393L19.2546 15.1274L11.8272 7.61561C11.8214 7.60974 11.8156 7.60391 11.8097 7.59811C11.3057 7.0998 10.6207 6.89656 9.96864 6.9863C8.8384 7.0791 7.95006 8.0258 7.95006 9.17999V27.4616C7.95006 28.1198 8.23899 28.7105 8.69723 29.1141C9.55968 29.9007 10.897 29.8724 11.7251 29.0348L19.2546 21.419L26.8256 29.0765C26.8314 29.0823 26.8372 29.0882 26.8431 29.094C27.702 29.9433 29.0868 29.9354 29.9361 29.0765L29.9547 29.0576C30.8062 28.1965 30.8062 26.8106 29.9548 25.9495L22.365 18.2732L29.851 10.7027C30.7034 9.8406 30.7034 8.45312 29.8509 7.59102L29.834 7.57392C29.8282 7.56806 29.8224 7.56223 29.8165 7.55643ZM12.3523 14.4386L16.1442 18.2732L12.3523 22.1078V14.4386Z" fill="white"/>
</g>
<defs>
<filter id="filter0_d_2_692" x="0.500012" y="0.629639" width="37.5265" height="37.8" filterUnits="userSpaceOnUse" color-interpolation-filters="sRGB">
<feFlood flood-opacity="0" result="BackgroundImageFix"/>
<feColorMatrix in="SourceAlpha" type="matrix" values="0 0 0 0 0 0 0 0 0 0 0 0 0 0 0 0 0 0 127 0" result="hardAlpha"/>
<feOffset dy="1.2"/>
<feGaussianBlur stdDeviation="0.6"/>
<feColorMatrix type="matrix" values="0 0 0 0 0 0 0 0 0 0 0 0 0 0 0 0 0 0 0.145624 0"/>
<feBlend mode="normal" in2="BackgroundImageFix" result="effect1_dropShadow_2_692"/>
<feBlend mode="normal" in="SourceGraphic" in2="effect1_dropShadow_2_692" result="shape"/>
</filter>
<linearGradient id="paint0_linear_2_692" x1="33.9039" y1="4.44189" x2="5.48114" y2="33.086" gradientUnits="userSpaceOnUse">
<stop stop-color="#00B4FF"/>
<stop offset="0.512584" stop-color="#FE7BE3"/>
<stop offset="1" stop-color="#FFD02A"/>
</linearGradient>
<clipPath id="clip0_2_692">
<rect width="120" height="37.8" fill="white" transform="translate(0.5 0.629639)"/>
</clipPath>
</defs>
</svg>
