<svg width="200" height="63" viewBox="0 0 200 63" fill="none" xmlns="http://www.w3.org/2000/svg">
<path d="M168.833 40.7045C168.833 40.9228 168.788 41.1307 168.698 41.3281C168.608 41.5256 168.489 41.6997 168.341 41.8504C168.194 42.0011 168.017 42.1207 167.811 42.209C167.605 42.2974 167.386 42.3415 167.153 42.3415C166.921 42.3415 166.705 42.2974 166.504 42.209C166.303 42.1207 166.126 42.0037 165.973 41.8582C165.82 41.7127 165.699 41.5386 165.609 41.3359C165.519 41.1333 165.474 40.9228 165.474 40.7045C165.474 40.4862 165.519 40.2758 165.609 40.0731C165.699 39.8704 165.82 39.6963 165.973 39.5508C166.126 39.4053 166.303 39.2884 166.504 39.2C166.705 39.1117 166.921 39.0675 167.153 39.0675C167.386 39.0675 167.602 39.1117 167.803 39.2C168.004 39.2884 168.18 39.4053 168.334 39.5508C168.487 39.6963 168.608 39.8704 168.698 40.0731C168.788 40.2758 168.833 40.4862 168.833 40.7045ZM178.718 34.3279V42.1233H175.866V41.2814C175.254 41.9778 174.446 42.326 173.442 42.326C172.935 42.326 172.46 42.222 172.017 42.0141C171.573 41.8063 171.19 41.5178 170.868 41.1489C170.546 40.7799 170.293 40.3459 170.108 39.847C169.923 39.3481 169.831 38.8076 169.831 38.2256C169.831 37.6539 169.923 37.1161 170.108 36.612C170.293 36.1079 170.546 35.6739 170.868 35.3101C171.19 34.9464 171.573 34.6579 172.017 34.4449C172.46 34.2318 172.935 34.1252 173.442 34.1252C173.949 34.1252 174.406 34.211 174.813 34.3825C175.219 34.554 175.57 34.8164 175.866 35.1698V34.3279H178.718ZM172.714 38.2256C172.714 38.4439 172.756 38.6465 172.84 38.8336C172.925 39.0207 173.041 39.1844 173.189 39.3247C173.337 39.4651 173.508 39.5768 173.704 39.6599C173.899 39.7431 174.108 39.7847 174.33 39.7847C174.551 39.7847 174.76 39.7431 174.955 39.6599C175.151 39.5768 175.322 39.4651 175.47 39.3247C175.618 39.1844 175.734 39.0207 175.819 38.8336C175.903 38.6465 175.945 38.4439 175.945 38.2256C175.945 38.0073 175.903 37.8046 175.819 37.6176C175.734 37.4305 175.618 37.2668 175.47 37.1265C175.322 36.9861 175.151 36.8744 174.955 36.7913C174.76 36.7081 174.551 36.6665 174.33 36.6665C174.108 36.6665 173.899 36.7081 173.704 36.7913C173.508 36.8744 173.337 36.9861 173.189 37.1265C173.041 37.2668 172.925 37.4305 172.84 37.6176C172.756 37.8046 172.714 38.0073 172.714 38.2256ZM183.343 34.3279V35.2166C183.628 34.8632 183.974 34.593 184.381 34.4059C184.787 34.2188 185.239 34.1252 185.735 34.1252C186.253 34.1252 186.733 34.2292 187.177 34.4371C187.62 34.6449 188.006 34.9334 188.333 35.3023C188.661 35.6713 188.917 36.1053 189.102 36.6042C189.286 37.1031 189.379 37.6435 189.379 38.2256C189.379 38.8076 189.286 39.3481 189.102 39.847C188.917 40.3459 188.661 40.7773 188.333 41.1411C188.006 41.5048 187.62 41.7933 187.177 42.0063C186.733 42.2194 186.253 42.326 185.735 42.326C185.239 42.326 184.785 42.2402 184.373 42.0687C183.961 41.8972 183.618 41.6348 183.343 41.2814V45.3661H180.46V34.3279H183.343ZM186.48 38.2256C186.48 38.0073 186.438 37.8046 186.353 37.6176C186.269 37.4305 186.152 37.2668 186.005 37.1265C185.857 36.9861 185.688 36.8744 185.498 36.7913C185.308 36.7081 185.102 36.6665 184.88 36.6665C184.658 36.6665 184.45 36.7081 184.254 36.7913C184.059 36.8744 183.887 36.9861 183.739 37.1265C183.591 37.2668 183.475 37.4305 183.391 37.6176C183.306 37.8046 183.264 38.0073 183.264 38.2256C183.264 38.4439 183.306 38.6465 183.391 38.8336C183.475 39.0207 183.591 39.1844 183.739 39.3247C183.887 39.4651 184.059 39.5768 184.254 39.6599C184.45 39.7431 184.658 39.7847 184.88 39.7847C185.102 39.7847 185.308 39.7431 185.498 39.6599C185.688 39.5768 185.857 39.4651 186.005 39.3247C186.153 39.1844 186.269 39.0207 186.353 38.8336C186.438 38.6465 186.48 38.4439 186.48 38.2256ZM193.577 34.3279V35.2166C193.862 34.8632 194.208 34.593 194.614 34.4059C195.021 34.2188 195.472 34.1252 195.969 34.1252C196.486 34.1252 196.967 34.2292 197.41 34.4371C197.854 34.6449 198.239 34.9334 198.567 35.3023C198.894 35.6713 199.15 36.1053 199.335 36.6042C199.52 37.1031 199.612 37.6435 199.612 38.2256C199.612 38.8076 199.52 39.3481 199.335 39.847C199.15 40.3459 198.894 40.7773 198.567 41.1411C198.239 41.5048 197.854 41.7933 197.41 42.0063C196.967 42.2194 196.486 42.326 195.969 42.326C195.472 42.326 195.018 42.2402 194.606 42.0687C194.195 41.8972 193.851 41.6348 193.577 41.2814V45.3661H190.694V34.3279H193.577ZM196.713 38.2256C196.713 38.0073 196.671 37.8046 196.587 37.6176C196.502 37.4305 196.386 37.2668 196.238 37.1265C196.09 36.9861 195.921 36.8744 195.731 36.7913C195.541 36.7081 195.335 36.6665 195.113 36.6665C194.892 36.6665 194.683 36.7081 194.488 36.7913C194.292 36.8744 194.121 36.9861 193.973 37.1265C193.825 37.2668 193.709 37.4305 193.624 37.6176C193.54 37.8046 193.498 38.0073 193.498 38.2256C193.498 38.4439 193.54 38.6465 193.624 38.8336C193.709 39.0207 193.825 39.1844 193.973 39.3247C194.121 39.4651 194.292 39.5768 194.488 39.6599C194.683 39.7431 194.892 39.7847 195.113 39.7847C195.335 39.7847 195.541 39.7431 195.731 39.6599C195.921 39.5768 196.09 39.4651 196.238 39.3247C196.386 39.1844 196.502 39.0207 196.587 38.8336C196.671 38.6465 196.713 38.4439 196.713 38.2256Z" fill="black"/>
<path d="M89.8309 22.2249L82.1679 31.2467L90.2677 42.0968H81.6915L75.8946 33.9891V42.0968H68.6683V14.2762H75.8946V28.8621L81.3738 22.2249H89.8309ZM91.0474 42.0968V22.2249H98.3133V42.0968H91.0474ZM98.7501 16.6211C98.7501 17.1512 98.6442 17.6612 98.4324 18.1512C98.2207 18.6414 97.9295 19.072 97.5589 19.4429C97.1883 19.814 96.7582 20.1054 96.2685 20.3172C95.7788 20.5292 95.2428 20.6352 94.6605 20.6352C94.1046 20.6352 93.5818 20.5292 93.0921 20.3172C92.6025 20.1053 92.1723 19.8138 91.8017 19.4429C91.4312 19.0719 91.14 18.648 90.9282 18.1711C90.7165 17.6941 90.6106 17.1775 90.6106 16.6211C90.6106 16.0646 90.7165 15.548 90.9282 15.071C91.14 14.5941 91.4312 14.1702 91.8017 13.7992C92.1723 13.4283 92.6025 13.1368 93.0921 12.9249C93.5818 12.7129 94.1046 12.6069 94.6605 12.6069C95.2428 12.6069 95.7788 12.7129 96.2685 12.9249C96.7582 13.1371 97.1884 13.4285 97.5589 13.7992C97.9295 14.1703 98.2207 14.6008 98.4324 15.0909C98.6442 15.5813 98.7501 16.0913 98.7501 16.6211ZM107.821 42.0968H100.555V22.2249H107.821V24.6493C108.377 23.6689 109.131 22.9271 110.084 22.4236C111.037 21.9202 112.122 21.6685 113.34 21.6685C115.484 21.6685 117.171 22.364 118.402 23.7551C119.633 25.1461 120.248 27.0472 120.248 29.4583V42.0968H112.982V31.4455C112.982 30.4386 112.757 29.6636 112.307 29.1205C111.857 28.5773 111.235 28.3057 110.441 28.3057C109.647 28.3057 109.012 28.5839 108.535 29.1403C108.059 29.6967 107.821 30.4916 107.821 31.525V42.0968ZM144.295 14.2762V42.0968H137.069V39.9506C136.354 40.825 135.487 41.4874 134.468 41.9378C133.449 42.3882 132.317 42.6135 131.073 42.6135C129.776 42.6135 128.572 42.3485 127.46 41.8186C126.348 41.2887 125.382 40.5534 124.562 39.6128C123.741 38.6722 123.099 37.566 122.636 36.2942C122.173 35.0224 121.941 33.6446 121.941 32.1609C121.941 30.7036 122.173 29.3324 122.636 28.0474C123.099 26.7623 123.741 25.6561 124.562 24.7288C125.382 23.8014 126.348 23.0662 127.46 22.523C128.572 21.9798 129.776 21.7082 131.073 21.7082C132.317 21.7082 133.456 21.9268 134.488 22.364C135.52 22.8012 136.381 23.4702 137.069 24.3711V14.2762H144.295ZM129.207 32.1609C129.207 32.7173 129.313 33.2339 129.525 33.7109C129.737 34.1878 130.028 34.6051 130.398 34.9628C130.769 35.3205 131.192 35.6053 131.669 35.8173C132.145 36.0292 132.662 36.1352 133.217 36.1352C133.773 36.1352 134.296 36.0292 134.786 35.8173C135.275 35.6053 135.706 35.3205 136.076 34.9628C136.447 34.6051 136.738 34.1878 136.95 33.7109C137.161 33.2339 137.267 32.7173 137.267 32.1609C137.267 31.6044 137.161 31.0878 136.95 30.6108C136.738 30.1339 136.447 29.7166 136.076 29.3589C135.706 29.0012 135.275 28.7164 134.786 28.5044C134.296 28.2925 133.773 28.1865 133.217 28.1865C132.662 28.1865 132.145 28.2925 131.669 28.5044C131.192 28.7164 130.769 29.0012 130.398 29.3589C130.028 29.7166 129.737 30.1339 129.525 30.6108C129.313 31.0878 129.207 31.6044 129.207 32.1609ZM148.03 53.7968C148.03 53.7968 149.797 49.9763 153.333 42.3352L145.194 22.2249H152.857L157.185 34.3865L161.512 22.2249H168.977L160.52 43.0506C159.355 45.8857 155.26 53.7968 155.26 53.7968H148.03Z" fill="black"/>
<path d="M56.0407 6.35376H8.30475V54.4615H56.0407V6.35376Z" fill="url(#paint0_linear_102_7)"/>
<path opacity="0.2" fill-rule="evenodd" clip-rule="evenodd" d="M30.763 35.1258L36.476 29.3505L39.9909 32.9128L34.2778 38.6881L30.763 35.1258Z" fill="#11B1FD"/>
<g filter="url(#filter0_d_102_7)">
<path d="M46.1441 0C54.097 0 60.5441 6.4471 60.5441 14.4V44.6C60.5441 52.5529 54.097 59 46.1441 59H16.4C8.4471 59 2 52.5529 2 44.6V14.4C2 6.4471 8.4471 0 16.4 0H46.1441ZM48.8609 11.5446C47.4293 10.1292 45.1214 10.1422 43.7059 11.5738L31.2576 24.163L18.8786 11.6433C18.869 11.6335 18.8592 11.6238 18.8495 11.6141C18.0095 10.7836 16.8678 10.4449 15.781 10.5944C13.8973 10.7491 12.4168 12.3269 12.4168 14.2506V44.7199C12.4168 45.8169 12.8983 46.8015 13.662 47.4742C15.0994 48.785 17.3283 48.7379 18.7085 47.3419L31.2576 34.649L43.876 47.4114C43.8857 47.4212 43.8954 47.4309 43.9051 47.4406C45.3367 48.856 47.6447 48.843 49.0601 47.4114L49.0912 47.38C50.5103 45.9448 50.5103 43.6349 49.0912 42.1997L36.4416 29.406L48.9182 16.7884C50.3389 15.3516 50.3389 13.0391 48.9182 11.6023L48.8901 11.5738C48.8804 11.564 48.8707 11.5543 48.8609 11.5446ZM19.7538 23.015L26.0736 29.406L19.7538 35.797V23.015Z" fill="black"/>
</g>
<path d="M46.1441 0C54.097 0 60.5441 6.4471 60.5441 14.4V44.6C60.5441 52.5529 54.097 59 46.1441 59H16.4C8.4471 59 2 52.5529 2 44.6V14.4C2 6.4471 8.4471 0 16.4 0H46.1441ZM48.8609 11.5446C47.4293 10.1292 45.1214 10.1422 43.7059 11.5738L31.2576 24.163L18.8786 11.6433C18.869 11.6335 18.8592 11.6238 18.8495 11.6141C18.0095 10.7836 16.8678 10.4449 15.781 10.5944C13.8973 10.7491 12.4168 12.3269 12.4168 14.2506V44.7199C12.4168 45.8169 12.8983 46.8015 13.662 47.4742C15.0994 48.785 17.3283 48.7379 18.7085 47.3419L31.2576 34.649L43.876 47.4114C43.8857 47.4212 43.8954 47.4309 43.9051 47.4406C45.3367 48.856 47.6447 48.843 49.0601 47.4114L49.0912 47.38C50.5103 45.9448 50.5103 43.6349 49.0912 42.1997L36.4416 29.406L48.9182 16.7884C50.3389 15.3516 50.3389 13.0391 48.9182 11.6023L48.8901 11.5738C48.8804 11.564 48.8707 11.5543 48.8609 11.5446ZM19.7538 23.015L26.0736 29.406L19.7538 35.797V23.015Z" fill="white"/>
<defs>
<filter id="filter0_d_102_7" x="0" y="0" width="62.5441" height="63" filterUnits="userSpaceOnUse" color-interpolation-filters="sRGB">
<feFlood flood-opacity="0" result="BackgroundImageFix"/>
<feColorMatrix in="SourceAlpha" type="matrix" values="0 0 0 0 0 0 0 0 0 0 0 0 0 0 0 0 0 0 127 0" result="hardAlpha"/>
<feOffset dy="2"/>
<feGaussianBlur stdDeviation="1"/>
<feColorMatrix type="matrix" values="0 0 0 0 0 0 0 0 0 0 0 0 0 0 0 0 0 0 0.145624 0"/>
<feBlend mode="normal" in2="BackgroundImageFix" result="effect1_dropShadow_102_7"/>
<feBlend mode="normal" in="SourceGraphic" in2="effect1_dropShadow_102_7" result="shape"/>
</filter>
<linearGradient id="paint0_linear_102_7" x1="55.6732" y1="6.35376" x2="8.3019" y2="54.094" gradientUnits="userSpaceOnUse">
<stop stop-color="#00B4FF"/>
<stop offset="0.512584" stop-color="#FE7BE3"/>
<stop offset="1" stop-color="#FFD02A"/>
</linearGradient>
</defs>
</svg>
