<svg width="40" height="40" viewBox="0 0 40 40" fill="none" xmlns="http://www.w3.org/2000/svg">
<rect width="40" height="40" rx="20" fill="#FE7BE3"/>
<path d="M25.9971 19.1048C25.3433 19.1048 24.8133 18.5784 24.8133 17.9291C24.8133 17.2792 25.3433 16.7528 25.9971 16.7528C26.6515 16.7528 27.1815 17.2792 27.1815 17.9291C27.1815 18.5784 26.6515 19.1048 25.9971 19.1048ZM15.3157 14.7742C16.4442 13.8551 17.884 13.3484 19.3692 13.3484C20.8267 13.3484 22.2445 13.8375 23.3625 14.7264C23.6174 14.9292 23.6586 15.2995 23.4545 15.5526C23.2508 15.8063 22.8795 15.8483 22.622 15.6444C21.7139 14.9225 20.5583 14.5247 19.3692 14.5247C18.1566 14.5247 16.9842 14.936 16.0672 15.6833C15.957 15.7736 15.8238 15.8171 15.6922 15.8171C15.5204 15.8171 15.3507 15.744 15.2337 15.6019C15.0264 15.3509 15.0635 14.9801 15.3157 14.7742ZM31.1117 17.3684H29.2067C28.9774 16.7077 28.6578 16.0817 28.2698 15.4951L29.884 14.0045C30.0041 13.893 30.0156 13.699 29.8981 13.5849C28.6359 12.3661 26.6802 12.4984 25.4347 12.7385C23.7344 11.6504 21.6439 11 19.3749 11C14.041 11 9.65804 14.5501 9.15044 19.0924C8.50812 19.1391 8 19.6655 8 20.3153C8 20.9958 8.55512 21.5471 9.24026 21.5471L9.26272 21.545C9.69146 23.6642 10.95 25.2139 12.7819 26.4104V28.1183C12.7819 28.6053 13.1793 29 13.6702 29H16.4025C16.8928 29 17.2907 28.6053 17.2907 28.1183V27.1313H21.4591V28.1183C21.4591 28.6053 21.857 29 22.3474 29H25.0796C25.57 29 25.9679 28.6053 25.9679 28.1183V26.4109C27.204 25.6895 28.1998 24.6372 28.839 23.3157H31.1117C31.6021 23.3157 32 22.9205 32 22.4335V18.2506C32 17.7636 31.6021 17.3684 31.1117 17.3684Z" fill="white"/>
</svg>
