<svg width="40" height="40" viewBox="0 0 40 40" fill="none" xmlns="http://www.w3.org/2000/svg">
<rect width="40" height="40" rx="20" fill="#00D061"/>
<path fill-rule="evenodd" clip-rule="evenodd" d="M10.1321 11.0136C11.7932 10.2402 13.4345 9.64087 15.056 9.21535C16.8555 8.7319 18.4373 8.5 19.9997 8.5C21.5816 8.5 23.1438 8.73209 24.963 9.21535C26.5647 9.64071 28.206 10.2401 29.8869 11.0136C30.2428 11.1489 30.5 11.4971 30.5 11.9031C30.5 16.6986 29.8672 20.4303 28.2853 23.5238C26.7033 26.637 24.2118 29.0926 20.5339 31.3549C20.2174 31.5483 19.8023 31.5483 19.4858 31.3549C15.8078 29.0926 13.3165 26.6371 11.7344 23.5238C10.1525 20.4302 9.5 16.6982 9.5 11.9031C9.5 11.4971 9.75704 11.1491 10.1328 11.0136H10.1321ZM19.9992 29.46V20.0047H27.6321C27.3552 20.9715 26.9994 21.8609 26.5841 22.6923C25.2198 25.3412 23.1039 27.4878 19.9992 29.46H19.9992ZM19.9992 10.3755V20.0047H12.3663C11.7336 17.8777 11.4567 15.4027 11.4171 12.483C12.8013 11.8642 14.1855 11.3615 15.5498 11.0134C17.1714 10.588 18.5753 10.3752 19.9989 10.3752L19.9992 10.3755Z" fill="white"/>
</svg>
