<svg width="40" height="40" viewBox="0 0 40 40" fill="none" xmlns="http://www.w3.org/2000/svg">
<rect width="40" height="40" rx="20" fill="#00B3FC"/>
<path fill-rule="evenodd" clip-rule="evenodd" d="M12.6551 25.0378C11.5184 23.5276 10.9487 21.8165 10.9487 20.0243C10.9487 15.7073 14.2815 12.1611 18.4832 11.8791C18.2831 11.3636 18.4041 10.7596 18.8309 10.3547C19.4045 9.84303 20.2534 9.88495 20.7708 10.4442L22.8186 12.7109C23.1597 13.0884 23.144 13.6674 22.7828 14.0258L20.7346 16.0589C20.1257 16.5991 19.3016 16.5429 18.7985 16.0351C18.427 15.634 18.326 15.0852 18.4851 14.6164C15.8087 14.9118 13.7184 17.2146 13.7184 20.0024C13.7184 21.1886 14.0995 22.3214 14.8188 23.279C15.2695 23.9078 15.1418 24.7672 14.5425 25.2055C14.3034 25.3779 14.008 25.4761 13.7298 25.4761C13.3468 25.4761 12.9657 25.3208 12.6551 25.0378ZM19.1768 29.5501L17.1524 27.2881C16.8166 26.9129 16.8307 26.3411 17.1847 25.983L19.2187 23.9249C19.496 23.661 19.8618 23.5105 20.2305 23.5353C20.5935 23.5477 20.927 23.6972 21.169 23.9583C21.5406 24.3594 21.6359 24.9206 21.4615 25.396C24.1741 25.1369 26.3044 22.8159 26.3044 20.0024C26.3044 18.7771 25.91 17.6224 25.164 16.6629C24.7209 16.0779 24.8238 15.2214 25.3898 14.7498C25.6708 14.5164 26.031 14.4116 26.394 14.4506C26.7646 14.4925 27.1076 14.6859 27.3353 14.9823C28.4577 16.4248 29.0513 18.1693 29.0513 20.0243C29.0513 24.3518 25.7032 27.9037 21.4882 28.1724C21.6654 28.6793 21.5387 29.2585 21.1261 29.6492C20.8565 29.8883 20.5497 30.0036 20.2001 30.0036C19.797 30.0036 19.434 29.8426 19.1768 29.5501Z" fill="white"/>
</svg>
