<svg width="40" height="40" viewBox="0 0 40 40" fill="none" xmlns="http://www.w3.org/2000/svg">
<rect width="40" height="40" rx="20" fill="#A288F3"/>
<path fill-rule="evenodd" clip-rule="evenodd" d="M14.2262 25.7166C11.1158 25.7166 8.56677 23.1445 8.56677 19.9999C8.56677 16.8554 11.1159 14.2833 14.2267 14.2833H25.7733C28.8861 14.2833 31.4332 16.8558 31.4332 19.9999C31.4332 23.1441 28.8865 25.7161 25.7733 25.7161H14.2267L14.2262 25.7166ZM25.8866 23.6662C27.885 23.6662 29.5242 22.0213 29.5242 20.0003C29.5242 17.9812 27.8856 16.3261 25.8866 16.3261C23.8854 16.3261 22.2568 17.9818 22.2568 20.0003C22.2568 22.021 23.8859 23.6662 25.8866 23.6662Z" fill="white"/>
</svg>
