<svg width="40" height="40" viewBox="0 0 40 40" fill="none" xmlns="http://www.w3.org/2000/svg">
<rect width="40" height="40" rx="20" fill="#FF473D"/>
<path d="M14.4745 20.489C16.4797 20.489 18.2388 18.6262 18.2388 16.5033C18.2388 14.3915 16.4797 12.5394 14.4745 12.5394C12.458 12.5394 10.6892 14.3915 10.6892 16.5033C10.6892 18.6262 12.458 20.489 14.4745 20.489Z" fill="white"/>
<path d="M20.7255 23.7681C19.5528 23.1136 17.1725 22.0075 14.4822 22.0075C11.7392 22.0075 9.40544 23.1078 8.2588 23.7628C7.79216 24.0299 7.5 24.5353 7.5 25.0892V28.595C7.5 29.0951 7.88989 29.5 8.37034 29.5H20.6278C21.1083 29.5 21.4982 29.0951 21.4982 28.595V25.1014C21.4982 24.5422 21.1993 24.0325 20.7255 23.7681Z" fill="white"/>
<path d="M31.9203 15.1752H28.004V11.1028C28.004 10.7698 27.7441 10.5 27.4238 10.5H26.2633C25.943 10.5 25.6836 10.7698 25.6836 11.1028V15.1752H21.7673C21.447 15.1752 21.1871 15.4455 21.1871 15.7786V16.9853C21.1871 17.3184 21.447 17.5882 21.7673 17.5882H25.6836V21.6606C25.6836 21.9936 25.943 22.2639 26.2633 22.2639H27.4238C27.7441 22.2639 28.004 21.9936 28.004 21.6606V17.5882H31.9203C32.2406 17.5882 32.5 17.3184 32.5 16.9853V15.7786C32.5 15.4455 32.2406 15.1752 31.9203 15.1752Z" fill="white"/>
</svg>
